PathFileType	4	(X/Y/Z)	Patient5_TMGait_0pt45_1_left_04.trc.trc
DataRate	CameraRate	NumFrames	NumMarkers	Units	OrigDataRate	OrigDataStartFrame	OrigNumFrames
58.823529411765	58.823529411765	6	32	mm	58.823529411765	53	       141
Frame#	Time	R.ASIS			L.ASIS			Chest			R.Shoulder			Neck			L.Shoulder			L.Elbow			L.Wrist			R.Elbow			R.Wrist			L.Thigh.Superior			L.Thigh.Lateral			L.Thigh.Inferior			L.Patella			L.Shank.Superior			L.Shank.Lateral			L.Shank.Inferior			L.Heel			L.Midfoot.Lateral			L.Midfoot.Superior			L.Toe			R.Thigh.Superior			R.Thigh.Lateral			R.Thigh.Inferior			R.Patella			R.Shank.Superior			R.Shank.Lateral			R.Shank.Inferior			R.Heel			R.Midfoot.Lateral			R.Midfoot.Superior			R.Toe			
		X1	Y1	Z1	X2	Y2	Z2	X3	Y3	Z3	X4	Y4	Z4	X5	Y5	Z5	X6	Y6	Z6	X7	Y7	Z7	X8	Y8	Z8	X9	Y9	Z9	X10	Y10	Z10	X11	Y11	Z11	X12	Y12	Z12	X13	Y13	Z13	X14	Y14	Z14	X15	Y15	Z15	X16	Y16	Z16	X17	Y17	Z17	X18	Y18	Z18	X19	Y19	Z19	X20	Y20	Z20	X21	Y21	Z21	X22	Y22	Z22	X23	Y23	Z23	X24	Y24	Z24	X25	Y25	Z25	X26	Y26	Z26	X27	Y27	Z27	X28	Y28	Z28	X29	Y29	Z29	X30	Y30	Z30	X31	Y31	Z31	X32	Y32	Z32	

53	5.984000000000	944.120259195939	1019.102711176802	537.986900595969	975.223652598104	967.501123215552	299.118951698604	1018.929289430145	1455.372567640856	421.186993003135	881.416658149141	1519.533874445104	559.031960197361	900.317446476552	1574.550772306822	373.326055919393	1006.687593599930	1518.502837815710	217.013255144041	1000.701623483922	1191.276558413934	84.823309756637	1165.818029822757	958.923798664722	108.221076753691	764.697028300617	1199.192581056204	673.220413142000	978.839300228264	1003.104300248725	665.659380202007	995.385594344069	751.040523419259	298.517575839161	923.781677687164	678.323421672186	260.267302683603	996.694630059143	623.973760320738	325.571225896590	998.725501132718	508.088371069224	335.750231905266	953.145227587828	403.310335219067	357.077582550259	888.512386057714	331.992588430829	283.233109678070	923.941924453964	281.301516197433	371.380358526857	796.980635343309	49.317789719731	384.933090602755	883.254963447463	26.838972215605	320.087747501762	981.738122693311	89.199438634663	361.354112384588	1089.145960258934	46.869372876554	362.520952026933	979.662046564137	797.375428647708	595.381339027752	894.741098650253	721.543511977081	651.722385209541	988.856638723957	664.907823012911	603.057054165983	988.105680605734	564.222700404891	651.151021745663	922.396429071022	460.835563836836	616.123960393152	818.970637372355	425.803592682776	684.459448756416	863.019756016581	333.308011297407	620.548918727776	688.250628432479	158.618851200419	576.612027277637	732.674514124355	104.134038079456	662.693952350440	855.315187890775	129.129877654115	671.706125477590	934.430606778682	53.773043741728	691.165005108033	
54	6.001000000000	942.197379035214	1019.579963493450	536.035798618388	972.768606055252	967.291552938823	297.912176479327	1016.768557772932	1455.723927936603	418.670821780460	879.502944124139	1519.928323353848	556.675150734296	898.099825100227	1574.818725159731	370.882803450274	1004.368941402455	1518.692600709953	214.669028750618	1002.011041805259	1190.847035951381	83.715233483548	1170.009985431958	960.829320748853	109.184644253832	762.424537275319	1199.836199537949	671.197207125620	975.995996724556	1003.137810360031	662.666033950890	991.779699839487	750.612272335601	297.494298820433	919.039302453710	678.388086606882	259.847237667466	992.100008653917	623.368370426174	324.274804210588	993.145026525927	507.446853890479	334.275107878804	947.013387167492	402.914086179970	355.917982625301	881.342754077700	332.139468008070	282.891600328742	917.403336432873	281.223260493785	370.746788653557	789.270585805384	49.192594910756	385.066815425224	875.555153155414	26.846157864819	320.050713020855	974.076972176456	89.204780555921	361.145858041729	1081.458803132541	46.853364491453	362.443450466300	977.436159590362	798.025900197314	593.894280428020	892.062895276100	722.684438553875	650.993157171451	985.817094828054	666.057340458348	602.186067661446	986.463592336413	567.035132523346	651.569702470024	926.999552918847	462.108215610855	618.152672686851	825.162438178230	422.327021764246	685.671915252911	876.150346559166	331.419854920840	624.953235162129	714.332410221546	143.603922577798	582.174789761999	760.562152550490	94.998218097210	670.909676886672	880.945056304189	128.568175261707	681.886709086114	964.625417514516	59.301687620294	705.642597949979	
55	6.018000000000	940.233005238610	1019.881044449450	534.608931138574	970.301846422640	967.112791562006	296.918977607748	1014.506334684708	1455.928162444349	416.323670498438	877.580771837810	1520.256816505132	554.544724583763	895.730579939481	1574.954256468116	368.600791395675	1001.818476984035	1518.656733380748	212.453496804670	1003.054617773480	1190.216704273215	82.843905768656	1173.639270163851	962.397291491331	110.406172032022	760.412493565977	1200.362644036130	669.541130943764	973.404389380962	1003.057586398340	659.841092763835	988.258552838521	750.175836629019	296.590597063816	914.479659292941	678.386322695994	259.491078899390	987.645742622558	622.735133461924	323.083525029436	987.732802809477	506.782872985037	332.962330458383	941.074772368089	402.565965490186	354.991224526190	874.359934642045	332.275649123389	282.625322064999	910.968134298235	281.134391770359	370.226608543854	781.572706886981	49.107819920638	385.177181682498	867.859561273450	26.864067788903	320.019080554031	966.420151169132	89.212713370398	360.948068234070	1073.772749216712	46.828190922707	362.374101019896	974.835742425438	798.505348120453	592.596114274789	889.329874274739	723.542576330721	650.505123733329	983.050787032842	667.201898904391	601.741473398353	985.302083500644	569.841252926204	652.326065651777	932.349975451250	463.747241624609	620.165417888525	832.299173079894	419.045987029450	686.806161058432	890.162167443864	330.374289916778	629.058648370200	741.951893934242	130.609711483355	587.373983699967	789.673693874133	87.406924616792	678.088331749707	907.299799740862	129.288316305735	690.896549041107	995.103641135261	66.311019540501	718.197630418539	
56	6.035000000000	938.184209795818	1020.061950759867	533.641947678877	967.832403042212	966.974382983980	296.124703841599	1012.122709034747	1456.014108085604	414.196399167007	875.595426006096	1520.537565345905	552.657186617762	893.210685008094	1574.981799873821	366.517276403300	999.050109559425	1518.426896118882	210.403711675419	1003.769624895224	1189.408716667798	82.261443369110	1176.661542290282	963.633969476340	111.826074755835	758.622486687631	1200.774545780233	668.240748623215	971.088140258456	1002.938263681765	657.224816139650	984.807728570557	749.729215358490	295.874986487052	910.117368671804	678.339167848009	259.210415665395	983.293061973525	622.083587460436	322.076635835823	982.444863917580	506.106782370526	331.877220607530	935.295790823135	402.256847570448	354.330061669846	867.574403570566	332.388994879000	282.449676998956	904.617475902678	281.030881187579	369.856002462315	773.894725886177	49.104454582313	385.230992855269	860.166937041719	26.894661874682	319.997512853102	958.766939969397	89.216369960442	360.779142474544	1066.087740445469	46.793343856640	362.311846970289	972.146832354470	798.968857303978	591.675926890628	886.914951105852	724.186168294219	650.283223325541	981.002228441111	668.499458600325	601.777909534889	985.017512265787	572.703245364764	653.404657231806	938.568324973170	465.814138520842	622.101282334195	840.429471949773	416.242741746093	687.840175678973	904.796382654133	330.321897878606	632.716814772377	770.184221618470	120.201291446099	592.022881831847	819.188545365698	81.712726515635	684.022810612284	933.684359074477	131.353513588427	698.394001657114	1025.098333490411	74.613031387196	728.318205087190	
57	6.052000000000	936.050139182162	1020.189013020619	533.101155077658	965.350742950890	966.872466233936	295.509438769467	1009.602283252101	1456.006171095836	412.334096476182	873.495600100874	1520.783300817997	551.021317936389	890.545661331028	1574.920194734711	364.665509255310	996.095671785368	1518.036620922727	208.559096206375	1004.089302091654	1188.450504888392	82.003359750498	1179.032506726088	964.553236077481	113.392951132028	757.004597769104	1201.080892166952	667.283212986029	969.058433391943	1002.856909669351	654.856376134224	981.400074228691	749.258613281677	295.407250129318	905.948600424031	678.259722532247	259.026358056592	978.982292721316	621.418066832540	321.344531115614	977.218446647914	505.430783319951	331.097450550215	929.621016887128	401.967051052236	353.963556333705	860.989694086692	332.462051905513	282.383344669923	898.318467938380	280.903799433994	369.675076372316	766.239265721784	49.199947558629	385.215764384944	852.476054115935	26.940572022611	319.991015243887	951.113104671253	89.201100280521	360.665401286097	1058.405054385305	46.746832573856	362.255054747657	969.715557092600	799.578882428585	591.277880241690	885.206109298665	724.687540055623	650.315608535560	980.085987174963	670.079434967141	602.267220810431	985.969031309279	575.655059074195	654.706319478478	945.732122400088	468.292102738759	623.873276964333	849.557202372002	414.113671941770	688.751439329947	919.785137214087	331.257507216860	635.807586917582	798.091702542828	112.586913238339	595.986368926949	848.283001655194	78.015687579106	688.657787010068	959.462314756280	134.633026826241	704.213811128139	1053.963182086477	83.817936179207	735.786568651937	
58	6.069000000000	933.879291289703	1020.327660170771	532.979893717250	962.841181237222	966.794841909492	295.045038411706	1006.935546754333	1455.919474707170	410.769986736960	871.237921012197	1520.995738505769	549.639710297679	887.742482144272	1574.778139745489	363.072214024151	992.997616335625	1517.516050594485	206.957973512224	1003.956443869407	1187.369183222332	82.083338147375	1180.713028258874	965.168922586870	115.068947241019	755.497421093050	1201.289401768575	666.653065389544	967.312145872808	1002.883150305317	652.775391332043	978.004062479744	748.739014600886	295.228186889549	901.954277073560	678.146994124127	258.963567388789	974.640806227208	620.734365045790	320.974257157245	971.980590124433	504.765889920539	330.701052831223	923.979163632894	401.669859173018	353.914130310861	854.601362810262	332.473788454789	282.443514123813	892.024328734617	280.740116583650	369.719437847274	758.601718310410	49.378262445284	385.147675804662	844.785552184235	27.003451366182	320.005302865226	943.450397222847	89.145842010898	360.637039402605	1050.727321659489	46.685167014742	362.202089991203	967.898910098500	800.476893067476	591.454758372518	884.561488907643	725.119718212710	650.563684757544	980.621346978744	672.025506339458	603.090088768635	988.440058830420	578.705730658213	656.059933405403	953.859192399065	471.104093915228	625.377542102696	859.640892345846	412.765186457767	689.529323201675	934.865323844007	333.049068252404	638.239834277316	824.819647367715	107.661458005521	599.184713502665	876.183435974030	76.206388513193	692.059572862896	984.085318447212	138.848222303204	708.350007421440	1081.170957124617	93.399628330692	740.663936111029	
